<svg width="244" height="244" viewBox="0 0 244 244" fill="none" xmlns="http://www.w3.org/2000/svg">
<g clip-path="url(#clip0_39_2)">
<path fill-rule="evenodd" clip-rule="evenodd" d="M122 231.158C182.286 231.158 231.158 182.286 231.158 122C231.158 61.7138 182.286 12.8421 122 12.8421C61.7138 12.8421 12.8421 61.7138 12.8421 122C12.8421 182.286 61.7138 231.158 122 231.158ZM122 244C189.379 244 244 189.379 244 122C244 54.6213 189.379 0 122 0C54.6213 0 0 54.6213 0 122C0 189.379 54.6213 244 122 244Z" fill="#EDF1F5"/>
<path d="M16.0526 22.4738C35.3158 48.1581 32.1052 61.0002 32.1052 61.0002L93.1052 19.2633C93.1052 19.2633 -5.4893 -6.24854 16.0526 22.4738Z" fill="#6482AD"/>
<path d="M22.4734 96.3158C6.42085 163.737 60.9997 218.316 112.368 221.526C32.1052 202.263 22.4736 105.947 70.6315 112.368C93.1052 118.789 93.1052 154.105 109.158 147.684C115.579 144.474 118.789 134.842 125.21 125.21C131.632 112.368 179.789 147.684 208.684 134.842C225.791 127.239 218.316 89.8947 218.316 89.8947C211.895 61 195.842 48.1578 173.368 32.1052C147.684 19.2631 131.632 12.8421 89.8947 22.4737C86.6842 25.6842 -12.8421 -6.42094 28.8946 32.1052C48.1578 61 32.1051 61 22.4734 96.3158Z" fill="#EDF1F5"/>
<path d="M134.842 93.1055C125.21 93.1055 122 93.1055 122 102.737C122 115.579 128.421 115.579 141.263 115.579C149.155 115.579 163.514 113.424 168.443 112.645C169.206 112.524 169.524 111.637 168.999 111.07C164.988 106.746 151.052 93.1055 134.842 93.1055Z" fill="#6482AD"/>
<path d="M128.421 160.526C127.465 157.316 118.789 150.895 125.21 141.263C138.053 131.632 141.263 154.105 202.263 144.474C186.21 154.105 166.947 150.895 160.526 157.316C154.105 163.737 150.895 176.579 144.474 179.79C134.842 183 131.002 169.191 128.421 160.526Z" fill="#EDF1F5"/>
</g>
<defs>
<clipPath id="clip0_39_2">
<rect width="244" height="244" fill="white"/>
</clipPath>
</defs>
</svg>
